<svg xmlns="http://www.w3.org/2000/svg" width="594.565" height="584.76" viewBox="0 0 594.565 584.76"><g transform="translate(-1037 -1203.639)"><g transform="translate(1037 1203.639)"><g transform="translate(0 0)"><g transform="translate(57.466 58.187)"><path d="M1213.78,321.31a237.312,237.312,0,0,0-394.211-49.466c15.669,6.256,27.49,20.829,37.861,35.195,4.478,6.212,8.948,12.675,11.087,20.2s1.544,16.411-3.279,22.313c-2.83,3.443-6.894,5.686-9.06,9.638-1.648,3.029-1.959,6.652-2.235,10.147-1.337,17.214-2.632,34.971,2.356,51.4,4.1,13.477,12.14,25.083,18.732,37.369,11.182,20.855,18.43,45.074,15.531,68.949-1.631,13.452-7.645,27.714-19.353,32.693-15.324,6.523-31.442-5.289-45.86-13.866a131.722,131.722,0,0,0-37.49-15.108A237.321,237.321,0,0,0,1213.78,321.31Zm-111.97,33.323c-2.252-1.985-3.727-4.858-6.316-6.376-1.976-1.165-4.357-1.381-6.635-1.57-11.269-.949-22.891-1.855-33.642,1.657-8.818,2.891-16.411,8.559-24.453,13.2-13.641,7.886-29.5,12.994-45.126,10.949-8.8-1.156-18.137-5.384-21.4-13.641-4.271-10.794,3.46-22.158,9.077-32.322a97.212,97.212,0,0,0,11.312-34.712c.388-3.072.544-6.488-1.312-8.973-1.441-1.915-3.874-2.951-5.1-5.013-1.674-2.821-.518-6.411.733-9.439a264.808,264.808,0,0,1,12.071-25.333c9.327-17.144,40.01-19.181,63.72-17.516,9.56.673,19.405,2.994,26.765,9.129,8.413,7,12.382,17.809,17.628,27.4a101.883,101.883,0,0,0,43.918,42.149c4.556,2.261,9.888,4.875,10.915,9.871a12.7,12.7,0,0,1-.543,6c-3.538,12.235-13.762,21.226-23.814,29.034-4.064,3.158-8.3,6.307-13.219,7.817C1111.491,358.455,1105.676,358.041,1101.81,354.633Z" transform="translate(-763.192 -188.08)" fill="#29abe2" stroke="#29abe2" stroke-miterlimit="10" stroke-width="1"/><path d="M1170.905,310.1A101.978,101.978,0,0,1,1127,267.947c-5.246-9.595-9.215-20.406-17.628-27.4-7.369-6.135-17.214-8.447-26.774-9.129-23.711-1.674-54.384.362-63.72,17.516a263.821,263.821,0,0,0-12.071,25.333c-1.251,3.029-2.416,6.618-.742,9.439,1.225,2.054,3.658,3.1,5.091,5.013,1.864,2.485,1.7,5.893,1.312,8.965a97.213,97.213,0,0,1-11.312,34.712c-5.608,10.164-13.339,21.528-9.077,32.322,3.262,8.257,12.589,12.485,21.4,13.641,15.626,2.045,31.476-3.063,45.126-10.949,8.042-4.642,15.626-10.311,24.453-13.2,10.742-3.512,22.365-2.606,33.633-1.657a15.5,15.5,0,0,1,6.635,1.57c2.589,1.519,4.064,4.392,6.316,6.385,3.857,3.408,9.672,3.822,14.6,2.312s9.155-4.659,13.219-7.817c10.052-7.817,20.268-16.808,23.814-29.034a12.585,12.585,0,0,0,.535-6C1180.8,314.98,1175.469,312.365,1170.905,310.1Z" transform="translate(-791.034 -193.959)" fill="#8cc63f" stroke="#8cc63f" stroke-miterlimit="10" stroke-width="1"/><path d="M886.633,540.369c-1.631,13.452-7.645,27.714-19.353,32.693-15.324,6.523-31.442-5.289-45.86-13.866a131.722,131.722,0,0,0-37.49-15.108A237.384,237.384,0,0,1,815.639,285.16c15.669,6.256,27.49,20.829,37.861,35.195,4.478,6.212,8.948,12.675,11.087,20.2s1.544,16.411-3.279,22.313c-2.83,3.443-6.894,5.686-9.06,9.638-1.648,3.029-1.959,6.652-2.235,10.147-1.337,17.214-2.632,34.971,2.356,51.4,4.1,13.477,12.14,25.083,18.732,37.369C882.293,492.274,889.54,516.494,886.633,540.369Z" transform="translate(-759.27 -201.396)" fill="#8cc63f" stroke="#8cc63f" stroke-miterlimit="10" stroke-width="1"/><path d="M1290.586,446.539a236.913,236.913,0,0,1-95.015,189.918,31.137,31.137,0,0,1-4.806-8.9c-3.831-11.243-1.622-23.875,3.607-34.556,1.234-2.511,2.623-5.574,1.122-7.938-.975-1.544-2.847-2.183-4.547-2.847a39.983,39.983,0,0,1-14.193-9.439c-1.682-1.743-3.262-3.753-3.658-6.143a14.368,14.368,0,0,1,.673-5.841c2.33-9.034,4.815-18.387,10.777-25.574,3.839-4.616,8.9-8.067,12.977-12.477a39.849,39.849,0,0,0,10.1-31.916c-.846-6.23-3.158-12.166-4.375-18.344-2.847-14.513.621-29.742,7.213-42.986s16.135-24.772,26.023-35.773c5.772-6.419,11.743-12.77,16.126-20.2,5.712-9.664,8.844-21.191,14-31.027A236.271,236.271,0,0,1,1290.586,446.539Z" transform="translate(-816.019 -209.26)" fill="#8cc63f" stroke="#8cc63f" stroke-miterlimit="10" stroke-width="1"/><path d="M1102.381,584.9c0,8.689-1.726,17.282-3.443,25.807-.889,4.426-1.821,8.956-4.185,12.8-6.575,10.665-21.8,12.8-29.535,22.658-9.181,11.7-4.4,29.095-9.638,43.021a38.106,38.106,0,0,1-6.911,11.32,238.791,238.791,0,0,1-32.494,2.209A236.156,236.156,0,0,1,902.23,673.612c.354-1.337.708-2.692,1.053-4.029,2.183-8.3,4.461-16.817,9.517-23.754,4.228-5.807,10.138-10.13,15.22-15.2,13.736-13.762,21.277-32.995,36-45.7,8.067-6.954,18.266-11.985,23.607-21.2,4.392-7.593,4.72-16.808,4.685-25.583s-.224-17.887,3.331-25.92,12.14-14.6,20.717-12.727c8.016-2.123,21.01-7.446,34-12.761,8.068-3.3,16.4-6.661,25.108-6.463s17.93,4.892,20.656,13.167c-4.426,6.678-4.271,15.281-3.952,23.279.224,5.643.44,11.286,1.156,16.894C1095.53,550.857,1102.381,567.5,1102.381,584.9Z" transform="translate(-778.879 -228.158)" fill="#8cc63f" stroke="#8cc63f" stroke-miterlimit="10" stroke-width="1"/></g><path d="M877.4,188.307l3.175,5.617a5.01,5.01,0,0,1,.777,3.607,3.669,3.669,0,0,1-1.855,2.4,3.558,3.558,0,0,1-2.977.319,5.05,5.05,0,0,1-2.658-2.528l-10.578-18.715q-2.563-4.53.716-6.385a3.13,3.13,0,0,1,3.011-.3,6.779,6.779,0,0,1,2.58,2.666,13.556,13.556,0,0,1,.708-4.53,5.9,5.9,0,0,1,2.787-2.977,10,10,0,0,1,4.711-1.268,3.639,3.639,0,0,1,3.581,1.683,3.081,3.081,0,0,1,.3,2.511,3.007,3.007,0,0,1-1.38,1.838,9.455,9.455,0,0,1-2.045.552,9.64,9.64,0,0,0-2.752.958,4.238,4.238,0,0,0-1.976,2.14,5.73,5.73,0,0,0-.147,3.123,18.508,18.508,0,0,0,1.337,4.038A57.987,57.987,0,0,0,877.4,188.307Z" transform="translate(-715.916 -126.893)" fill="#8cc63f"/><path d="M921.382,164.834l-14,5.66a10.127,10.127,0,0,0,2.727,3.9,7.084,7.084,0,0,0,7.558,1.3,9.176,9.176,0,0,0,2.226-1.251,8.045,8.045,0,0,0,1.674-1.777,17.088,17.088,0,0,0,1.277-2.123q.544-1.074,1.372-2.873a2.521,2.521,0,0,1,1.381-1.1,2.829,2.829,0,0,1,2.028-.121,2.331,2.331,0,0,1,1.372,1.432,5.057,5.057,0,0,1,.155,2.571,9.7,9.7,0,0,1-1.286,3.417,13.979,13.979,0,0,1-3.054,3.538,17.976,17.976,0,0,1-5.022,2.942q-6.9,2.783-12.313.406t-8.145-9.12a19.252,19.252,0,0,1-1.441-6.264,13.979,13.979,0,0,1,.871-5.764,12.936,12.936,0,0,1,3.253-4.78,17.088,17.088,0,0,1,5.453-3.408,15.021,15.021,0,0,1,7.912-1.139,12.611,12.611,0,0,1,6.35,2.752,13.028,13.028,0,0,1,3.805,5.108q1.087,2.7-.129,4.124A10.26,10.26,0,0,1,921.382,164.834Zm-15.643,1.6,12.977-5.246a9.387,9.387,0,0,0-4.2-4.694,6.394,6.394,0,0,0-5.263.009,6.188,6.188,0,0,0-3.641,3.624A9.892,9.892,0,0,0,905.739,166.43Z" transform="translate(-720.814 -124.689)" fill="#8cc63f"/><path d="M967.5,159.036l-.173-.742a19.835,19.835,0,0,1-2.312,3.529,11.617,11.617,0,0,1-2.8,2.407,12.5,12.5,0,0,1-3.624,1.458,11.312,11.312,0,0,1-5.263.043,12.021,12.021,0,0,1-4.754-2.312,15.183,15.183,0,0,1-3.727-4.375,21.61,21.61,0,0,1-2.338-5.988q-1.67-7.041.828-11.795a11.747,11.747,0,0,1,8.119-6.083,12.47,12.47,0,0,1,5.738-.19,15.724,15.724,0,0,1,5.16,2.39l-2.632-11.087a5.749,5.749,0,0,1,.095-3.71,3.238,3.238,0,0,1,2.347-1.812,3.346,3.346,0,0,1,2.882.466,4.976,4.976,0,0,1,1.683,2.985l7.878,33.133a4.731,4.731,0,0,1-.224,3.451,3.433,3.433,0,0,1-2.3,1.683,3.373,3.373,0,0,1-2.813-.509A4.622,4.622,0,0,1,967.5,159.036Zm-17.4-7.515a13.185,13.185,0,0,0,2.183,4.979,7.516,7.516,0,0,0,3.365,2.614,6.577,6.577,0,0,0,3.865.233,6.813,6.813,0,0,0,3.374-1.89,7.378,7.378,0,0,0,1.864-3.788,13.265,13.265,0,0,0-.285-5.557,12.787,12.787,0,0,0-2.2-4.927,7.961,7.961,0,0,0-3.425-2.675,6.491,6.491,0,0,0-3.917-.276,6.317,6.317,0,0,0-3.408,2.045,7.642,7.642,0,0,0-1.717,3.952A13.869,13.869,0,0,0,950.1,151.521Z" transform="translate(-726.847 -120.643)" fill="#8cc63f"/><path d="M1013,154.938l-.078-.984a17.249,17.249,0,0,1-2.657,3.167,10.715,10.715,0,0,1-3.184,2.036,13.4,13.4,0,0,1-4.064.915,10.669,10.669,0,0,1-5.1-.742,8.433,8.433,0,0,1-3.684-2.9,14.081,14.081,0,0,1-2.019-6.929l-1.26-15.246a4.987,4.987,0,0,1,.759-3.538,3.563,3.563,0,0,1,2.666-1.372,3.7,3.7,0,0,1,2.916.923,4.929,4.929,0,0,1,1.355,3.348l1.018,12.321a19.3,19.3,0,0,0,.82,4.461,5.427,5.427,0,0,0,1.855,2.718,4.639,4.639,0,0,0,3.253.768,6.5,6.5,0,0,0,3.572-1.458,6.782,6.782,0,0,0,2.261-3.227q.518-1.683.06-7.213l-.768-9.362a4.92,4.92,0,0,1,.785-3.529,3.649,3.649,0,0,1,2.692-1.389,3.559,3.559,0,0,1,2.856.915,5.011,5.011,0,0,1,1.329,3.365l1.838,22.3a4.8,4.8,0,0,1-.725,3.382,3.349,3.349,0,0,1-2.485,1.312,3.4,3.4,0,0,1-2.7-.923A4.552,4.552,0,0,1,1013,154.938Z" transform="translate(-733.579 -121.61)" fill="#8cc63f"/><path d="M1066.38,150.9a6.693,6.693,0,0,1-1.053,3.02,10.759,10.759,0,0,1-2.821,2.951,13.568,13.568,0,0,1-4.6,2.105,18.7,18.7,0,0,1-6.1.518q-7.144-.453-10.889-4.875t-3.3-11.415a18.459,18.459,0,0,1,2.364-8.266,13.247,13.247,0,0,1,5.66-5.3,18.045,18.045,0,0,1,13.857-.242,14.391,14.391,0,0,1,4.09,2.528,10.883,10.883,0,0,1,2.468,3.115,5.836,5.836,0,0,1,.733,2.977,3.073,3.073,0,0,1-1.182,2.278,3.549,3.549,0,0,1-2.562.8,2.539,2.539,0,0,1-1.562-.6,7.487,7.487,0,0,1-1.32-1.683,11.891,11.891,0,0,0-2.744-3.408,6.751,6.751,0,0,0-3.84-1.32,6.669,6.669,0,0,0-5.677,2.321,11.564,11.564,0,0,0-2.554,7.162,13.87,13.87,0,0,0,.285,4.029,9.2,9.2,0,0,0,1.355,3.2,6.632,6.632,0,0,0,2.33,2.105,7.445,7.445,0,0,0,3.124.863,7.113,7.113,0,0,0,4.029-.82,9.408,9.408,0,0,0,3.132-3.089,7.409,7.409,0,0,1,1.657-1.933,2.882,2.882,0,0,1,2.053-.6,2.981,2.981,0,0,1,2.278,1.225A3.466,3.466,0,0,1,1066.38,150.9Z" transform="translate(-739.978 -121.67)" fill="#8cc63f"/><path d="M1106.09,153.756l-14.772-3.149a10.227,10.227,0,0,0,.069,4.754,7.115,7.115,0,0,0,5.531,5.315,9.412,9.412,0,0,0,2.545.207,8.177,8.177,0,0,0,2.381-.535,16.2,16.2,0,0,0,2.243-1.044c.7-.388,1.614-.932,2.744-1.613a2.569,2.569,0,0,1,1.769-.147,2.775,2.775,0,0,1,1.743,1.035,2.328,2.328,0,0,1,.336,1.95,5.112,5.112,0,0,1-1.312,2.226,9.821,9.821,0,0,1-2.977,2.114,14.059,14.059,0,0,1-4.513,1.225,17.722,17.722,0,0,1-5.807-.371q-7.274-1.553-10.432-6.558T1084,147.043a19.176,19.176,0,0,1,2.321-6,13.911,13.911,0,0,1,3.952-4.288,13.034,13.034,0,0,1,5.375-2.14,17.33,17.33,0,0,1,6.428.224,14.99,14.99,0,0,1,7.2,3.486,12.537,12.537,0,0,1,3.719,5.841,13.053,13.053,0,0,1,.293,6.368q-.608,2.847-2.416,3.348A10.309,10.309,0,0,1,1106.09,153.756Zm-13.857-7.429,13.693,2.916a9.41,9.41,0,0,0-.854-6.238,6.409,6.409,0,0,0-4.366-2.942,6.187,6.187,0,0,0-5.047.966A9.92,9.92,0,0,0,1092.233,146.327Z" transform="translate(-746.279 -122.532)" fill="#8cc63f"/><path d="M1292.976,288.767l-5.393,3.529a5.03,5.03,0,0,1-3.555,1.01,3.7,3.7,0,0,1-2.52-1.7,3.53,3.53,0,0,1-.509-2.942,5.078,5.078,0,0,1,2.347-2.821l17.981-11.778q4.349-2.847,6.411.293a3.142,3.142,0,0,1,.5,2.985,6.748,6.748,0,0,1-2.494,2.752,13.463,13.463,0,0,1,4.564.414,5.879,5.879,0,0,1,3.149,2.589,9.921,9.921,0,0,1,1.57,4.616,3.634,3.634,0,0,1-1.441,3.684,3.068,3.068,0,0,1-2.485.466,3.025,3.025,0,0,1-1.924-1.26,9.738,9.738,0,0,1-.682-2,9.567,9.567,0,0,0-1.139-2.692,4.194,4.194,0,0,0-2.261-1.829,5.671,5.671,0,0,0-3.123.052,18.985,18.985,0,0,0-3.943,1.6C1296.6,286.481,1294.918,287.5,1292.976,288.767Z" transform="translate(-773.351 -141.501)" fill="#8cc63f"/><path d="M1319.654,331.141l-6.566-13.6a10.256,10.256,0,0,0-3.719,2.968,7.088,7.088,0,0,0-.811,7.627,9.266,9.266,0,0,0,1.4,2.14,8.1,8.1,0,0,0,1.881,1.553,17.767,17.767,0,0,0,2.2,1.139c.733.311,1.726.708,2.959,1.182a2.557,2.557,0,0,1,1.2,1.3,2.763,2.763,0,0,1,.25,2.01,2.327,2.327,0,0,1-1.338,1.458,5.05,5.05,0,0,1-2.562.328,9.674,9.674,0,0,1-3.495-1.061,14.209,14.209,0,0,1-3.727-2.813,18.178,18.178,0,0,1-3.27-4.815q-3.236-6.7-1.208-12.261t8.568-8.723a19.3,19.3,0,0,1,6.161-1.846,13.878,13.878,0,0,1,5.815.492,12.809,12.809,0,0,1,4.979,2.934,17.37,17.37,0,0,1,3.762,5.22,15.025,15.025,0,0,1,1.657,7.817,12.533,12.533,0,0,1-2.338,6.514,12.925,12.925,0,0,1-4.849,4.133q-2.627,1.268-4.124.138A10.1,10.1,0,0,1,1319.654,331.141Zm-2.623-15.505,6.092,12.606a9.445,9.445,0,0,0,4.409-4.5,6.36,6.36,0,0,0-.354-5.246,6.179,6.179,0,0,0-3.857-3.4A9.95,9.95,0,0,0,1317.031,315.636Z" transform="translate(-776.257 -146.291)" fill="#8cc63f"/><path d="M1333.258,381.743a6.67,6.67,0,0,1-3.2.095,10.7,10.7,0,0,1-3.771-1.579,13.544,13.544,0,0,1-3.607-3.538,18.676,18.676,0,0,1-2.666-5.5q-2.136-6.834.656-11.907t9.483-7.161a18.412,18.412,0,0,1,8.568-.742,13.221,13.221,0,0,1,6.972,3.4,18.072,18.072,0,0,1,5.186,12.856,14.354,14.354,0,0,1-.9,4.72,10.935,10.935,0,0,1-2.028,3.417,5.935,5.935,0,0,1-2.52,1.752,3.074,3.074,0,0,1-2.545-.285,3.529,3.529,0,0,1-1.665-2.105,2.525,2.525,0,0,1,0-1.674,7.756,7.756,0,0,1,1.1-1.838,11.786,11.786,0,0,0,2.2-3.779,7.26,7.26,0,0,0-4.331-8.533,11.542,11.542,0,0,0-7.6.181,13.9,13.9,0,0,0-3.658,1.708,9.33,9.33,0,0,0-2.511,2.407,6.742,6.742,0,0,0-1.13,2.934,7.4,7.4,0,0,0,.311,3.218,7.176,7.176,0,0,0,2.209,3.477,9.4,9.4,0,0,0,4,1.821,7.423,7.423,0,0,1,2.4.854,3.1,3.1,0,0,1,.975,4.262A3.615,3.615,0,0,1,1333.258,381.743Z" transform="translate(-778.592 -152.266)" fill="#8cc63f"/><path d="M1325.86,407.566l1.812.423,22.1-13.21a9.2,9.2,0,0,1,2.822-1.346,3.569,3.569,0,0,1,1.9.207,3.748,3.748,0,0,1,1.562,1.165,3.7,3.7,0,0,1,.8,1.743,3.016,3.016,0,0,1-.647,2.658,9.693,9.693,0,0,1-2.761,1.967l-17.714,9.491,18.439,3.287a30.015,30.015,0,0,1,3.538.777,3.923,3.923,0,0,1,1.821.984,3.461,3.461,0,0,1,.716,1.786,3.415,3.415,0,0,1-1.234,3.167,3.432,3.432,0,0,1-1.579.7c-.362-.017-.889-.06-1.57-.121s-1.372-.164-2.079-.293l-27.628-5.721a31.194,31.194,0,0,1-5.8-1.639,8.382,8.382,0,0,1-3.529-2.77,12.2,12.2,0,0,1-1.933-5.289,13.439,13.439,0,0,1-.086-5.142,3,3,0,0,1,4.539-1.639,3.5,3.5,0,0,1,1.1,2.243,4.17,4.17,0,0,1,.026,1.225,6.085,6.085,0,0,0,.035,1.286,4.509,4.509,0,0,0,.725,2,3.665,3.665,0,0,0,1.57,1.13A20.094,20.094,0,0,0,1325.86,407.566Z" transform="translate(-777.977 -158.054)" fill="#8cc63f"/><path d="M1343.255,468.771a6.7,6.7,0,0,1-3.1-.8,10.547,10.547,0,0,1-3.175-2.563,13.569,13.569,0,0,1-2.476-4.409,18.891,18.891,0,0,1-1.027-6.031q-.142-7.157,3.943-11.251t11.1-4.245a18.526,18.526,0,0,1,8.438,1.665,13.123,13.123,0,0,1,5.746,5.2,18.054,18.054,0,0,1,1.4,13.8,14.5,14.5,0,0,1-2.174,4.288,10.652,10.652,0,0,1-2.9,2.718,5.877,5.877,0,0,1-2.908.975,3.11,3.11,0,0,1-2.373-.984,3.517,3.517,0,0,1-1.01-2.485,2.51,2.51,0,0,1,.466-1.6,7.8,7.8,0,0,1,1.57-1.458,11.757,11.757,0,0,0,3.167-3.02,7.263,7.263,0,0,0-1.795-9.4,11.506,11.506,0,0,0-7.351-1.941,13.784,13.784,0,0,0-3.986.621,9.021,9.021,0,0,0-3.08,1.622,6.621,6.621,0,0,0-1.9,2.5,7.568,7.568,0,0,0-.6,3.184,7.137,7.137,0,0,0,1.156,3.952,9.388,9.388,0,0,0,3.339,2.856,7.755,7.755,0,0,1,2.071,1.484,2.9,2.9,0,0,1,.777,1.993,3.013,3.013,0,0,1-1.027,2.373A3.455,3.455,0,0,1,1343.255,468.771Z" transform="translate(-780.566 -164.375)" fill="#8cc63f"/><path d="M1337.257,486.274l33.349,3a5.2,5.2,0,0,1,3.4,1.346,3.518,3.518,0,0,1,.932,2.882,3.629,3.629,0,0,1-1.424,2.709,5.06,5.06,0,0,1-3.607.759l-33.357-3a5,5,0,0,1-3.408-1.4,3.653,3.653,0,0,1-.915-2.908,3.488,3.488,0,0,1,1.458-2.64A5.141,5.141,0,0,1,1337.257,486.274Z" transform="translate(-780.392 -170.79)" fill="#8cc63f"/><path d="M1339.144,532.387l3.029-14.8a10.2,10.2,0,0,0-4.754.112,7.086,7.086,0,0,0-5.263,5.574,9.368,9.368,0,0,0-.19,2.545,8.219,8.219,0,0,0,.552,2.381,16.709,16.709,0,0,0,1.061,2.235c.4.7.94,1.6,1.639,2.727a2.547,2.547,0,0,1,.155,1.76,2.751,2.751,0,0,1-1.027,1.752,2.33,2.33,0,0,1-1.95.354,4.989,4.989,0,0,1-2.235-1.294,9.747,9.747,0,0,1-2.14-2.968,13.937,13.937,0,0,1-1.26-4.5,18.085,18.085,0,0,1,.319-5.807q1.488-7.287,6.471-10.483t12.106-1.743a19.209,19.209,0,0,1,6.014,2.269,13.936,13.936,0,0,1,4.323,3.917,12.984,12.984,0,0,1,2.183,5.35,17.277,17.277,0,0,1-.173,6.428,14.945,14.945,0,0,1-3.425,7.222,12.6,12.6,0,0,1-5.807,3.762,13.074,13.074,0,0,1-6.368.345c-1.907-.388-3.029-1.191-3.365-2.39A10.367,10.367,0,0,1,1339.144,532.387Zm7.317-13.917-2.8,13.719a9.354,9.354,0,0,0,6.23-.906,6.376,6.376,0,0,0,2.9-4.383,6.145,6.145,0,0,0-1.01-5.039A9.729,9.729,0,0,0,1346.461,518.469Z" transform="translate(-779.63 -174.02)" fill="#8cc63f"/><path d="M1188.263,732.282l-3.175-5.608a5.011,5.011,0,0,1-.777-3.607,3.643,3.643,0,0,1,1.855-2.4,3.527,3.527,0,0,1,2.977-.319,5.072,5.072,0,0,1,2.666,2.519l10.6,18.7q2.563,4.53-.708,6.385a3.157,3.157,0,0,1-3.011.311,6.662,6.662,0,0,1-2.58-2.666,13.8,13.8,0,0,1-.7,4.53,5.9,5.9,0,0,1-2.787,2.977,9.845,9.845,0,0,1-4.711,1.268,3.635,3.635,0,0,1-3.581-1.674,3.238,3.238,0,0,1,1.078-4.349,9.456,9.456,0,0,1,2.045-.552,9.639,9.639,0,0,0,2.752-.958,4.238,4.238,0,0,0,1.976-2.14,5.737,5.737,0,0,0,.147-3.123,18.568,18.568,0,0,0-1.346-4.038C1190.308,736.044,1189.411,734.3,1188.263,732.282Z" transform="translate(-760.046 -202.877)" fill="#8cc63f"/><path d="M1142.471,756.191l14-5.677a10.218,10.218,0,0,0-2.727-3.9,7.084,7.084,0,0,0-7.558-1.3,9.473,9.473,0,0,0-2.226,1.251,8.046,8.046,0,0,0-1.674,1.777,17.094,17.094,0,0,0-1.277,2.123c-.362.716-.82,1.674-1.363,2.873a2.569,2.569,0,0,1-1.381,1.113,2.785,2.785,0,0,1-2.028.121,2.294,2.294,0,0,1-1.372-1.424,4.987,4.987,0,0,1-.155-2.58,9.7,9.7,0,0,1,1.286-3.417,13.976,13.976,0,0,1,3.054-3.538,18.144,18.144,0,0,1,5.013-2.951q6.9-2.8,12.313-.414t8.154,9.112a19.253,19.253,0,0,1,1.441,6.264,14.04,14.04,0,0,1-.863,5.772,12.834,12.834,0,0,1-3.253,4.78,17.256,17.256,0,0,1-5.453,3.417,15.031,15.031,0,0,1-7.912,1.148,12.578,12.578,0,0,1-6.35-2.752,12.991,12.991,0,0,1-3.814-5.108q-1.1-2.705.129-4.124A10.322,10.322,0,0,1,1142.471,756.191Zm15.643-1.622-12.977,5.263a9.375,9.375,0,0,0,4.211,4.685,6.427,6.427,0,0,0,5.263-.009,6.178,6.178,0,0,0,3.641-3.633A9.959,9.959,0,0,0,1158.114,754.569Z" transform="translate(-753.288 -205.482)" fill="#8cc63f"/><path d="M1097.319,759.513l.233.966a17.186,17.186,0,0,1,2.14-3.546,10.7,10.7,0,0,1,2.83-2.5,13.513,13.513,0,0,1,3.883-1.536,10.634,10.634,0,0,1,5.151-.052,8.457,8.457,0,0,1,4.09,2.3,14.185,14.185,0,0,1,3.063,6.532l3.589,14.875a4.991,4.991,0,0,1-.207,3.615,3.575,3.575,0,0,1-2.425,1.76,3.653,3.653,0,0,1-3.02-.466,4.92,4.92,0,0,1-1.855-3.106l-2.9-12.011a18.8,18.8,0,0,0-1.5-4.28,5.446,5.446,0,0,0-2.252-2.4,4.688,4.688,0,0,0-3.339-.259,6.43,6.43,0,0,0-3.3,1.993,6.755,6.755,0,0,0-1.734,3.529c-.164,1.165.181,3.546,1.052,7.136l2.2,9.129a4.928,4.928,0,0,1-.233,3.607,3.631,3.631,0,0,1-2.45,1.786,3.542,3.542,0,0,1-2.96-.466,5.01,5.01,0,0,1-1.829-3.123l-5.246-21.752a4.788,4.788,0,0,1,.2-3.451,3.576,3.576,0,0,1,5.073-1.182A4.739,4.739,0,0,1,1097.319,759.513Z" transform="translate(-747.18 -207.32)" fill="#8cc63f"/><path d="M1048.721,772.193a8.951,8.951,0,0,1,5.289-9.457,20.736,20.736,0,0,1,7.256-1.864,18.1,18.1,0,0,1,7.213.6,10.464,10.464,0,0,1,4.668,2.752,6.41,6.41,0,0,1,1.769,3.684,2.975,2.975,0,0,1-.7,2.252,3.105,3.105,0,0,1-2.192,1.113,2.67,2.67,0,0,1-1.915-.414,6.747,6.747,0,0,1-1.4-1.544,8.5,8.5,0,0,0-3.123-2.8,8.593,8.593,0,0,0-4.59-.587,6.506,6.506,0,0,0-3.693,1.389,2.911,2.911,0,0,0-1.26,2.494,3.223,3.223,0,0,0,1.812,2.813,18.739,18.739,0,0,0,5.22,1.294,42.649,42.649,0,0,1,6.661,1.458,10.663,10.663,0,0,1,4.254,2.485,6.584,6.584,0,0,1,1.907,4.219,7.77,7.77,0,0,1-.966,4.5,9.513,9.513,0,0,1-3.762,3.667,15.726,15.726,0,0,1-6.376,1.838,21.572,21.572,0,0,1-5.427-.112,13.262,13.262,0,0,1-4.124-1.286,8.242,8.242,0,0,1-2.64-2.079,4.522,4.522,0,0,1-1.061-2.4,2.88,2.88,0,0,1,.682-2.252,3.523,3.523,0,0,1,2.442-1.087,3.1,3.1,0,0,1,2.079.483,13.764,13.764,0,0,1,2.1,1.846,6.91,6.91,0,0,0,2.226,1.6,6.439,6.439,0,0,0,3.27.371,6.279,6.279,0,0,0,3.382-1.217,2.618,2.618,0,0,0,1.174-2.338,2.393,2.393,0,0,0-1.2-1.89,8.584,8.584,0,0,0-2.856-1.027c-1.173-.233-2.8-.492-4.849-.794a25.224,25.224,0,0,1-6.04-1.527,9.7,9.7,0,0,1-3.7-2.537A6.327,6.327,0,0,1,1048.721,772.193Z" transform="translate(-741.499 -208.446)" fill="#8cc63f"/><path d="M1009.273,775.365l15.091.673a10.245,10.245,0,0,0-.854-4.685,7.284,7.284,0,0,0-2.606-3.149,7.36,7.36,0,0,0-3.727-1.191,8.931,8.931,0,0,0-2.545.216,8.3,8.3,0,0,0-2.261.915,16.71,16.71,0,0,0-2.045,1.4c-.63.5-1.441,1.182-2.442,2.045a2.54,2.54,0,0,1-1.717.431,2.8,2.8,0,0,1-1.89-.733,2.351,2.351,0,0,1-.656-1.872,4.975,4.975,0,0,1,.932-2.407,9.637,9.637,0,0,1,2.589-2.571,14.023,14.023,0,0,1,4.245-1.95,17.7,17.7,0,0,1,5.79-.587q7.429.336,11.363,4.754t3.607,11.683a19.172,19.172,0,0,1-1.3,6.3,14.08,14.08,0,0,1-3.193,4.884,12.949,12.949,0,0,1-4.944,2.994,17.318,17.318,0,0,1-6.376.828,15.1,15.1,0,0,1-7.671-2.252,12.517,12.517,0,0,1-4.625-5.151,12.959,12.959,0,0,1-1.337-6.23q.129-2.912,1.838-3.7A10.731,10.731,0,0,1,1009.273,775.365Zm14.892,5.056-13.987-.63a9.325,9.325,0,0,0,1.872,6.014,6.411,6.411,0,0,0,4.789,2.183,6.193,6.193,0,0,0,4.823-1.777A9.968,9.968,0,0,0,1024.165,780.421Z" transform="translate(-735.192 -208.598)" fill="#8cc63f"/><path d="M760.315,646.278l.777-.509a15.332,15.332,0,0,1-5.781-1.622,11.1,11.1,0,0,1-3.969-3.753,12.365,12.365,0,0,1-2.062-6.5,12.684,12.684,0,0,1,1.9-6.911,18.682,18.682,0,0,1,6.048-6.04,20.516,20.516,0,0,1,6.023-2.752,14.709,14.709,0,0,1,5.695-.44,12.1,12.1,0,0,1,8.6,5.453,10.754,10.754,0,0,1,1.933,5.375,15.914,15.914,0,0,1-.915,5.721l9.7-6.359q4.258-2.8,6.29.311c.794,1.217.958,2.261.483,3.132a8.329,8.329,0,0,1-2.822,2.692l-27.869,18.266a4.875,4.875,0,0,1-3.279,1,3.339,3.339,0,0,1-2.356-1.6,3.5,3.5,0,0,1-.535-2.847A4.728,4.728,0,0,1,760.315,646.278Zm1.1-18.81a13.349,13.349,0,0,0-3.874,3.658,7.718,7.718,0,0,0-1.4,4.012,6.186,6.186,0,0,0,1.027,3.71,6.854,6.854,0,0,0,5.056,3.123c2.209.3,4.668-.44,7.4-2.226a10.743,10.743,0,0,0,4.806-5.755,6.8,6.8,0,0,0-.82-5.919,6.15,6.15,0,0,0-2.89-2.364,7.636,7.636,0,0,0-4.245-.362A13.181,13.181,0,0,0,761.411,627.468Z" transform="translate(-700.432 -188.815)" fill="#8cc63f"/><path d="M749.7,597.987l5.815-2.787a4.974,4.974,0,0,1,3.65-.526,3.692,3.692,0,0,1,2.269,2.019,3.519,3.519,0,0,1,.112,2.985,5.039,5.039,0,0,1-2.7,2.485l-19.388,9.293q-4.7,2.252-6.316-1.139a3.162,3.162,0,0,1-.1-3.029,6.716,6.716,0,0,1,2.839-2.4,13.473,13.473,0,0,1-4.469-1.01,5.875,5.875,0,0,1-2.778-2.985,9.908,9.908,0,0,1-.94-4.789,3.629,3.629,0,0,1,1.915-3.46,3.09,3.09,0,0,1,2.528-.129,3.015,3.015,0,0,1,1.743,1.5,10,10,0,0,1,.414,2.079,9.639,9.639,0,0,0,.768,2.813,4.213,4.213,0,0,0,2,2.114,5.742,5.742,0,0,0,3.106.362,18.349,18.349,0,0,0,4.116-1.061C745.8,599.773,747.611,598.988,749.7,597.987Z" transform="translate(-697.47 -185.34)" fill="#8cc63f"/><path d="M725.2,544.457a18.228,18.228,0,0,1,6.385-.949,13.913,13.913,0,0,1,5.721,1.406,13.685,13.685,0,0,1,4.564,3.633,17.2,17.2,0,0,1,3.037,5.7,16.736,16.736,0,0,1,.88,6.35,13.945,13.945,0,0,1-5.35,10.121,18.021,18.021,0,0,1-5.712,2.977,18.455,18.455,0,0,1-6.437.966,13.911,13.911,0,0,1-5.686-1.389,13.612,13.612,0,0,1-4.53-3.641,18.406,18.406,0,0,1-3.917-12.054,13.666,13.666,0,0,1,5.315-10.138A18.134,18.134,0,0,1,725.2,544.457Zm2.4,7.369q-4.491,1.463-6.35,4.254a6.733,6.733,0,0,0-.768,6.126,6.867,6.867,0,0,0,2.356,3.425,7.383,7.383,0,0,0,4.116,1.45,14.291,14.291,0,0,0,5.375-.768,14.044,14.044,0,0,0,4.746-2.511,7.6,7.6,0,0,0,2.476-3.572,6.879,6.879,0,0,0-.1-4.2,6.718,6.718,0,0,0-4.245-4.487A11.514,11.514,0,0,0,727.6,551.826Z" transform="translate(-695.611 -178.645)" fill="#8cc63f"/><path d="M705.1,530.663l-.164-.828-4.556.889c-1.225.242-2.183.4-2.89.466a4.365,4.365,0,0,1-1.9-.19,3.479,3.479,0,0,1-1.51-1.027,3.644,3.644,0,0,1-.846-1.769,3.8,3.8,0,0,1,.569-2.821,3.282,3.282,0,0,1,1.57-1.329,16.186,16.186,0,0,1,2.916-.785l5.16-1.01-.544-2.778a3.644,3.644,0,0,1,.285-2.606,2.546,2.546,0,0,1,1.795-1.225,2.233,2.233,0,0,1,2.373.794,8.035,8.035,0,0,1,1.286,3.339l.276,1.415,13.935-2.718a23.761,23.761,0,0,0,2.709-.656,2.876,2.876,0,0,0,1.424-.966,2.3,2.3,0,0,0,.25-1.881,10.073,10.073,0,0,0-.587-1.76,9.945,9.945,0,0,1-.587-1.734,2.309,2.309,0,0,1,.414-1.795,2.5,2.5,0,0,1,1.674-1.087,3.084,3.084,0,0,1,3.193,1.45,13.837,13.837,0,0,1,2.1,5.557,10.035,10.035,0,0,1-.147,5.617,5.639,5.639,0,0,1-2.839,3.046,22.678,22.678,0,0,1-5.522,1.665l-14.547,2.839.2,1a3.614,3.614,0,0,1-.293,2.649,2.593,2.593,0,0,1-1.8,1.242,2.492,2.492,0,0,1-2.131-.518A4.151,4.151,0,0,1,705.1,530.663Z" transform="translate(-692.736 -173.85)" fill="#8cc63f"/><path d="M716.513,475.5l1.087,15.065a10.325,10.325,0,0,0,4.547-1.389,7.323,7.323,0,0,0,2.821-2.951,7.209,7.209,0,0,0,.742-3.84,9.189,9.189,0,0,0-.509-2.5,8.4,8.4,0,0,0-1.173-2.14,16.318,16.318,0,0,0-1.622-1.864c-.569-.561-1.337-1.294-2.312-2.183a2.51,2.51,0,0,1-.63-1.657,2.789,2.789,0,0,1,.509-1.967,2.315,2.315,0,0,1,1.777-.863,5.051,5.051,0,0,1,2.5.638,9.471,9.471,0,0,1,2.856,2.278,14.3,14.3,0,0,1,2.433,3.995,17.972,17.972,0,0,1,1.26,5.677q.531,7.416-3.4,11.847T716.219,498.6a19.063,19.063,0,0,1-6.411-.561,14.069,14.069,0,0,1-5.22-2.6,12.9,12.9,0,0,1-3.546-4.564,17.2,17.2,0,0,1-1.57-6.238,15.028,15.028,0,0,1,1.346-7.878,12.575,12.575,0,0,1,4.573-5.194,13.02,13.02,0,0,1,6.031-2.054q2.912-.207,3.883,1.389A9.975,9.975,0,0,1,716.513,475.5Zm-3.279,15.384-1.01-13.961a9.408,9.408,0,0,0-5.755,2.554,6.388,6.388,0,0,0-1.6,5,6.187,6.187,0,0,0,2.33,4.582A9.881,9.881,0,0,0,713.234,490.883Z" transform="translate(-693.594 -168.454)" fill="#8cc63f"/><path d="M722.41,423.522a6.609,6.609,0,0,1,3.011,1.087,10.574,10.574,0,0,1,2.925,2.847,13.7,13.7,0,0,1,2.062,4.616,18.781,18.781,0,0,1,.466,6.1q-.518,7.131-4.97,10.837t-11.45,3.2a18.5,18.5,0,0,1-8.249-2.442,13.249,13.249,0,0,1-5.246-5.712,16.468,16.468,0,0,1-1.389-8.439,16.742,16.742,0,0,1,1.268-5.427,14.491,14.491,0,0,1,2.563-4.064,11.124,11.124,0,0,1,3.141-2.442,5.924,5.924,0,0,1,2.985-.708,3.1,3.1,0,0,1,2.269,1.2,3.557,3.557,0,0,1,.777,2.563,2.521,2.521,0,0,1-.613,1.562,7.922,7.922,0,0,1-1.7,1.312,11.709,11.709,0,0,0-3.434,2.718,6.716,6.716,0,0,0-1.355,3.831,6.649,6.649,0,0,0,2.269,5.695,11.6,11.6,0,0,0,7.144,2.614,13.9,13.9,0,0,0,4.029-.25,8.946,8.946,0,0,0,3.218-1.329,6.63,6.63,0,0,0,2.123-2.312,7.427,7.427,0,0,0,.889-3.115,7.08,7.08,0,0,0-.785-4.038,9.369,9.369,0,0,0-3.063-3.158,7.685,7.685,0,0,1-1.924-1.674,2.884,2.884,0,0,1-.587-2.054,2.977,2.977,0,0,1,1.242-2.261A3.6,3.6,0,0,1,722.41,423.522Z" transform="translate(-693.607 -162.112)" fill="#8cc63f"/><path d="M702.808,402.941l.164-.837-4.556-.889c-1.225-.242-2.174-.457-2.856-.656a4.341,4.341,0,0,1-1.682-.889,3.493,3.493,0,0,1-1.01-1.527,3.658,3.658,0,0,1-.121-1.959,3.82,3.82,0,0,1,1.6-2.4,3.264,3.264,0,0,1,1.959-.638,16.506,16.506,0,0,1,2.994.371l5.16,1.01L705,391.75a3.6,3.6,0,0,1,1.242-2.3,2.566,2.566,0,0,1,2.123-.466,2.231,2.231,0,0,1,1.9,1.622,8.075,8.075,0,0,1-.06,3.572l-.276,1.415,13.935,2.727a21.212,21.212,0,0,0,2.761.406,2.8,2.8,0,0,0,1.682-.362,2.313,2.313,0,0,0,.941-1.648,9.636,9.636,0,0,0,.121-1.846,9.241,9.241,0,0,1,.112-1.821,2.34,2.34,0,0,1,1.061-1.51,2.516,2.516,0,0,1,1.959-.38,3.1,3.1,0,0,1,2.416,2.545,13.706,13.706,0,0,1-.155,5.936,10.094,10.094,0,0,1-2.243,5.151,5.625,5.625,0,0,1-3.771,1.752A22.569,22.569,0,0,1,723,406l-14.547-2.847-.2,1a3.688,3.688,0,0,1-1.268,2.347,2.584,2.584,0,0,1-2.14.475,2.492,2.492,0,0,1-1.777-1.286A3.975,3.975,0,0,1,702.808,402.941Z" transform="translate(-692.668 -157.442)" fill="#8cc63f"/><ellipse cx="13.978" cy="14.142" rx="13.978" ry="14.142" transform="translate(43.066 130.199)" fill="#0071bc"/><ellipse cx="13.978" cy="14.142" rx="13.978" ry="14.142" transform="translate(111.126 519.035)" fill="#0071bc"/><ellipse cx="13.978" cy="14.142" rx="13.978" ry="14.142" transform="translate(518.487 441.483)" fill="#0071bc"/><ellipse cx="13.978" cy="14.142" rx="13.978" ry="14.142" transform="translate(436.975 43.614)" fill="#0071bc"/></g></g></g></svg>