<svg xmlns="http://www.w3.org/2000/svg" width="128" height="93" viewBox="0 0 128 93"><g transform="translate(1727 116)"><g transform="translate(-1697.563 -116)"><rect width="75" height="74" transform="translate(-0.437)" fill="none"/><path d="M15.7,17.87l4.407-7.3L23.279,5.3a3.089,3.089,0,0,1,5.3,0l4.561,7.581-3.793,6.35-3.081,4.992ZM64.849,35.8l-4.93-8.2L49.256,33.77l6.811,11.371h3.48a6.163,6.163,0,0,0,5.516-3.42,6.082,6.082,0,0,0,.648-2.742,6.46,6.46,0,0,0-.861-3.175ZM47.227,60.547h4.623a6.163,6.163,0,0,0,5.516-3.42l4.47-8.905H47.227V42.059L34.9,54.386,47.227,66.711ZM28.734,48.227H15.483l-2.588,4.34a5.318,5.318,0,0,0-.185,5.085h0a5.221,5.221,0,0,0,4.688,2.9H28.736ZM16.778,40.061l5.331,3.2L17.887,26.344,1,30.565l5.233,3.143L4.97,35.834a6.124,6.124,0,0,0-.218,5.917L9.774,51.8ZM50.366,11.676,46.355,4.989A6.245,6.245,0,0,0,41.059,2H30.182L39.8,18.027,34.5,21.2,51.413,25.42,55.635,8.5Z" transform="translate(1.186 4.163)" fill="#2e9b00" stroke="#036403" stroke-width="1"/></g><text transform="translate(-1727 -26)" fill="#fff" font-size="15" font-family="Helvetica-Bold, Helvetica" font-weight="700"><tspan x="0" y="0">ECOPLAST HART</tspan></text></g></svg>