<svg xmlns="http://www.w3.org/2000/svg" width="90" height="60" viewBox="0 0 90 60"><g transform="translate(-662.64 -376.41)"><g transform="translate(662.64 376.41)"><g transform="translate(0)"><path d="M9.849.423C4.763.423.64,4.057.64,8.54V52.278c0,4.483,4.123,8.117,9.209,8.117H34.465V.41Z" transform="translate(-0.64 -0.41)" fill="#4a89dc"/><path d="M24,.42V60.406H57.811V.42Z" transform="translate(4.143 -0.406)" fill="#ffce54"/><path d="M71.864.42H47.32V60.406H71.864c5.086,0,9.209-3.634,9.209-8.117V8.55A7.659,7.659,0,0,0,78.381,2.8,9.873,9.873,0,0,0,71.864.42Z" transform="translate(8.927 -0.406)" fill="#ed5565"/></g></g></g></svg>