<svg xmlns="http://www.w3.org/2000/svg" width="90" height="60" viewBox="0 0 90 60"><g transform="translate(-493.39 -1295.68)"><g transform="translate(493.39 1295.68)"><g transform="translate(0)"><path d="M42.761.68h-4.4V20.788L3.261,3.236A9.3,9.3,0,0,0,.452,9.19L27.413,22.67h-9.83L.41,14.09v2.485L12.669,22.7H.41v4.4H42.8Z" transform="translate(-0.382 -0.68)" fill="#fff"/><path d="M79.641,52.77a9.3,9.3,0,0,0,2.977-5.884L55.348,33.265h9.829l17.5,8.748V39.556L70.036,33.265H82.674v-4.4H40V55.255h4.4V35.147Z" transform="translate(7.284 4.745)" fill="#fff"/><path d="M44.353.68H40V27.065H82.716v-4.4H70.078l12.638-6.291V9.021L55.432,22.656H45.6L81.228,4.836a9.38,9.38,0,0,0-1.4-1.727L44.353,20.788Z" transform="translate(7.284 -0.68)" fill="#fff"/><path d="M.39,28.86v4.409H12.649L.39,39.392v7.344l26.961-13.48h9.83L1.822,50.934a9.352,9.352,0,0,0,1.4,1.741L38.332,35.137V55.245h4.4V28.86Z" transform="translate(-0.39 4.741)" fill="#fff"/><path d="M90.348,36.669V24.677H51.255V.68H39.175v24H.39V36.669H39.175v24h12.08v-24Z" transform="translate(-0.39 -0.68)" fill="#ec5565"/><path d="M27.371,20.22.41,6.74v4.887l17.174,8.58Z" transform="translate(-0.382 1.77)" fill="#ec5565"/><path d="M53.76,21.478,81.043,7.843A9.268,9.268,0,0,0,79.555,3.63L43.93,21.449Z" transform="translate(8.872 0.512)" fill="#ec5565"/><path d="M50.93,32,78.2,45.635a9.438,9.438,0,0,0,0-.983v-3.9L60.759,32Z" transform="translate(11.702 6.01)" fill="#ec5565"/><path d="M27.371,32,.41,45.48a9.268,9.268,0,0,0,1.4,4.213L37.214,32Z" transform="translate(-0.382 6.01)" fill="#ec5565"/><path d="M43.1,20.788,78.43,3.123A9.282,9.282,0,0,0,73.038.68H43.1Z" transform="translate(8.537 -0.68)" fill="#4658a9"/><path d="M74.012,38.281V31.99H61.43Z" transform="translate(15.946 7.578)" fill="#4658a9"/><path d="M74.012,18.151V11.86L61.43,18.151Z" transform="translate(15.946 2.269)" fill="#4658a9"/><path d="M2.46,50.869a9.282,9.282,0,0,0,6.417,2.57h28.66V33.33Z" transform="translate(0.447 6.548)" fill="#4658a9"/><path d="M43.1,33.33V53.438h29a9.282,9.282,0,0,0,6.291-2.457Z" transform="translate(8.537 6.548)" fill="#4658a9"/><path d="M37.545.68H7.945a9.282,9.282,0,0,0-5.5,2.556L37.545,20.788Z" transform="translate(0.439 -0.68)" fill="#4658a9"/><path d="M.39,31.99v6.122L12.635,31.99Z" transform="translate(-0.39 7.59)" fill="#4658a9"/><path d="M.39,11.97v6.136H12.635Z" transform="translate(-0.39 2.302)" fill="#4658a9"/></g></g></g></svg>